<?xml version="1.0" encoding="utf-8"?>
<svg xmlns="http://www.w3.org/2000/svg" style="margin: auto; background: rgb(0, 0, 0); display: block; shape-rendering: auto;" width="197" height="80" preserveAspectRatio="xMidYMid">
<style type="text/css">
  text {
    text-anchor: middle; font-size: 48px; opacity: 0;
  }
</style>
<g style="transform-origin: 98.5px 40px; transform: scale(0.6);">
<g transform="translate(98.5,40)">
  <g transform="translate(0,0)"><g class="path" style="transform: scale(1); transform-origin: -107.76px 6.5664px; animation: 1.66667s linear -0.942857s infinite normal forwards running beat-17bd973d-10ef-4858-a30f-81dcfb36a39b;"><path d="M31.76-47.04L31.76-47.04L31.76-47.04Q24.80-47.04 20.40-42.48L20.40-42.48L20.40-42.48Q16-37.92 16-30.72L16-30.72L14.32-30.72L14.32-30.72Q14.32-38.64 19.20-43.68L19.20-43.68L19.20-43.68Q24.08-48.72 31.76-48.72L31.76-48.72L31.76-48.72Q34.56-48.72 37.12-48.08L37.12-48.08L37.12-48.08Q39.68-47.44 40.92-46.80L40.92-46.80L40.92-46.80Q42.16-46.16 44.84-44.68L44.84-44.68L44.84-44.68Q47.52-43.20 49.20-42.44L49.20-42.44L49.20-42.44Q50.88-41.68 54.52-40.84L54.52-40.84L54.52-40.84Q58.16-40 62.56-40L62.56-40L62.56-38.32L62.56-38.32Q60-38.32 57.84-38.56L57.84-38.56L57.84-38.56Q57.20-37.92 56.24-36.60L56.24-36.60L56.24-36.60Q55.28-35.28 52.96-30.20L52.96-30.20L52.96-30.20Q50.64-25.12 48.48-18.24L48.48-18.24L56.96-18.24L56.80-16.80L48.08-16.80L48.08-16.80Q46.72-12.40 45.64-7.80L45.64-7.80L45.64-7.80Q44.56-3.20 42.88 1.16L42.88 1.16L42.88 1.16Q41.20 5.52 38.40 9.76L38.40 9.76L38.40 9.76Q32.56 18.32 20.72 18.32L20.72 18.32L20.72 18.32Q11.36 18.32 6.24 12.28L6.24 12.28L6.24 12.28Q1.12 6.24 1.12-1.20L1.12-1.20L1.12-1.20Q1.12-2.16 1.20-3.20L1.20-3.20L3.04-3.20L3.04-3.20Q2.96-2.24 2.96-1.36L2.96-1.36L2.96-1.36Q2.96 5.92 7.72 11.28L7.72 11.28L7.72 11.28Q12.48 16.64 20.72 16.64L20.72 16.64L20.72 16.64Q28.24 16.64 32.32 5.60L32.32 5.60L32.32 5.60Q34.72-0.96 36.28-7.92L36.28-7.92L36.28-7.92Q37.84-14.88 38.40-16.80L38.40-16.80L29.60-16.80L29.76-18.24L38.72-18.24L38.72-18.24Q41.52-28.88 44.24-33.96L44.24-33.96L44.24-33.96Q46.96-39.04 50.56-40.08L50.56-40.08L50.56-40.08Q47.76-41.04 44.60-42.88L44.60-42.88L44.60-42.88Q41.44-44.72 40.24-45.28L40.24-45.28L40.24-45.28Q36.48-47.04 31.76-47.04" fill="#ffffff" stroke="none" stroke-width="none" transform="translate(-139.60003662109375,21.766399536132813)" style="fill: rgb(255, 255, 255);"></path></g><g class="path" style="transform: scale(1); transform-origin: -61.2px 6.5664px; animation: 1.66667s linear -0.785714s infinite normal forwards running beat-17bd973d-10ef-4858-a30f-81dcfb36a39b;"><path d="M75.28 0.72L75.28 0.72Q69.12 0.72 65.92-2.36L65.92-2.36L65.92-2.36Q62.72-5.44 62.72-10.12L62.72-10.12L62.72-10.12Q62.72-14.80 63.56-18.12L63.56-18.12L63.56-18.12Q64.40-21.44 66.32-24.52L66.32-24.52L66.32-24.52Q68.24-27.60 72.12-29.36L72.12-29.36L72.12-29.36Q76-31.12 81.80-31.12L81.80-31.12L81.80-31.12Q87.60-31.12 90.84-28.04L90.84-28.04L90.84-28.04Q94.08-24.96 94.08-19.60L94.08-19.60L94.08-19.60Q94.08-10.48 89.24-4.88L89.24-4.88L89.24-4.88Q84.40 0.72 75.28 0.72L75.28 0.72zM71.76-7.52L71.76-7.52L71.76-7.52Q71.76-1.12 75.48-1.12L75.48-1.12L75.48-1.12Q79.20-1.12 82.12-7.56L82.12-7.56L82.12-7.56Q85.04-14 85.04-22.88L85.04-22.88L85.04-22.88Q85.04-29.60 81.40-29.60L81.40-29.60L81.40-29.60Q77.76-29.60 74.76-23.48L74.76-23.48L74.76-23.48Q71.76-17.36 71.76-7.52" fill="#ffffff" stroke="none" stroke-width="none" transform="translate(-139.60003662109375,21.766399536132813)" style="fill: rgb(255, 255, 255);"></path></g><g class="path" style="transform: scale(1); transform-origin: -25.64px -3.0736px; animation: 1.66667s linear -0.628571s infinite normal forwards running beat-17bd973d-10ef-4858-a30f-81dcfb36a39b;"><path d="M112.56 0.72L112.56 0.72L112.56 0.72Q107.52 0.72 105.20-2.64L105.20-2.64L98.48 2.16L96.96 2.16L105.92-50.24L105.92-50.24Q103.52-50 101.92-48L101.92-48L100.72-48.96L100.72-48.96Q103.12-51.84 106.76-51.84L106.76-51.84L106.76-51.84Q110.40-51.84 112.40-50L112.40-50L112.40-50Q114.40-48.16 114.40-44.80L114.40-44.80L114.40-44.80Q114.40-44.16 114.24-42.72L114.24-42.72L114.24-42.72Q112.96-35.60 111.12-25.60L111.12-25.60L111.12-25.60Q114.48-31.04 119.84-31.04L119.84-31.04L119.84-31.04Q125.20-31.04 128.08-27.96L128.08-27.96L128.08-27.96Q130.96-24.88 130.96-19.52L130.96-19.52L130.96-19.52Q130.96-10.08 125.84-4.68L125.84-4.68L125.84-4.68Q120.72 0.72 112.56 0.72zM112-1.44L112-1.44L112-1.44Q116.40-1.44 119.16-7.56L119.16-7.56L119.16-7.56Q121.92-13.68 121.92-22.80L121.92-22.80L121.92-22.80Q121.92-26.48 121.16-27.84L121.16-27.84L121.16-27.84Q120.40-29.20 118.40-29.20L118.40-29.20L118.40-29.20Q116.40-29.20 114.28-26.80L114.28-26.80L114.28-26.80Q112.16-24.40 111.20-22.28L111.20-22.28L111.20-22.28Q110.24-20.16 110.24-19.84L110.24-19.84L110.08-19.84L110.08-19.84Q108.08-9.36 107.12-4L107.12-4L107.12-4Q108.48-1.44 112-1.44" fill="#ffffff" stroke="none" stroke-width="none" transform="translate(-139.60003662109375,21.766399536132813)" style="fill: rgb(255, 255, 255);"></path></g><g class="path" style="transform: scale(1); transform-origin: 12.56px 6.5664px; animation: 1.66667s linear -0.471429s infinite normal forwards running beat-17bd973d-10ef-4858-a30f-81dcfb36a39b;"><path d="M163.12 0.72L163.12 0.72L163.12 0.72Q156.08 0.72 155.44-5.44L155.44-5.44L155.44-5.44Q151.92 0.72 146.56 0.72L146.56 0.72L146.56 0.72Q141.20 0.72 138.04-2.52L138.04-2.52L138.04-2.52Q134.88-5.76 134.88-11.60L134.88-11.60L134.88-11.60Q134.88-20.72 139.36-25.92L139.36-25.92L139.36-25.92Q143.84-31.12 150.96-31.12L150.96-31.12L150.96-31.12Q156.80-31.12 158.72-25.60L158.72-25.60L158.72-25.60Q159.12-28 159.60-30.40L159.60-30.40L159.60-30.40Q165.52-30.40 168.40-30.88L168.40-30.88L169.44-31.12L163.92-0.88L163.92-0.88Q166.32-1.12 167.92-3.12L167.92-3.12L169.12-2.16L169.12-2.16Q166.72 0.72 163.12 0.72zM143.92-7.52L143.92-7.52Q143.92-3.92 144.84-2.52L144.84-2.52L144.84-2.52Q145.76-1.12 147.68-1.12L147.68-1.12L147.68-1.12Q149.60-1.12 151.60-3.20L151.60-3.20L151.60-3.20Q154.24-5.92 155.84-10.08L155.84-10.08L155.84-10.08Q156.08-11.12 156.76-15.08L156.76-15.08L156.76-15.08Q157.44-19.04 157.92-21.60L157.92-21.60L157.92-21.60Q157.68-24.64 156.24-26.88L156.24-26.88L156.24-26.88Q154.80-29.12 152.64-29.12L152.64-29.12L152.64-29.12Q148.72-29.12 146.32-22.12L146.32-22.12L146.32-22.12Q143.92-15.12 143.92-7.52L143.92-7.52" fill="#ffffff" stroke="none" stroke-width="none" transform="translate(-139.60003662109375,21.766399536132813)" style="fill: rgb(255, 255, 255);"></path></g><g class="path" style="transform: scale(1); transform-origin: 51.6px 13.5664px; animation: 1.66667s linear -0.314286s infinite normal forwards running beat-17bd973d-10ef-4858-a30f-81dcfb36a39b;"><path d="M178.56-29.52L178.56-29.52L178.56-29.52Q176.64-29.52 174.56-27.28L174.56-27.28L173.36-28.24L173.36-28.24Q173.92-29.36 175.84-30.24L175.84-30.24L175.84-30.24Q177.76-31.12 180.08-31.12L180.08-31.12L180.08-31.12Q187.36-31.12 187.36-24.56L187.36-24.56L187.36-24.56Q187.36-21.76 185.84-15.40L185.84-15.40L185.84-15.40Q184.32-9.04 184.32-6.80L184.32-6.80L184.32-6.80Q184.32-2.96 187.52-2.96L187.52-2.96L187.52-2.96Q190.16-2.96 192.68-6.56L192.68-6.56L192.68-6.56Q195.20-10.16 196.80-16.24L196.80-16.24L199.44-30.40L199.44-30.40Q205.36-30.40 208.08-30.88L208.08-30.88L209.12-31.12L204.08-2.80L204.08-2.80Q202.64 5.44 197.40 10.08L197.40 10.08L197.40 10.08Q192.16 14.72 183.84 14.72L183.84 14.72L183.84 14.72Q178.80 14.72 176.04 13L176.04 13L176.04 13Q173.28 11.28 173.28 8.52L173.28 8.52L173.28 8.52Q173.28 5.76 174.96 4.12L174.96 4.12L174.96 4.12Q176.64 2.48 179.72 2.48L179.72 2.48L179.72 2.48Q182.80 2.48 185.44 3.48L185.44 3.48L185.44 3.48Q188.08 4.48 189.28 4.64L189.28 4.64L189.12 6.08L189.12 6.08Q187.76 5.92 185.20 4.96L185.20 4.96L185.20 4.96Q182.64 4 180.12 4L180.12 4L180.12 4Q177.60 4 176.28 5.12L176.28 5.12L176.28 5.12Q174.96 6.24 174.96 8.36L174.96 8.36L174.96 8.36Q174.96 10.48 177.28 11.80L177.28 11.80L177.28 11.80Q179.60 13.12 183.04 13.12L183.04 13.12L183.04 13.12Q191.36 13.12 193.28 3.12L193.28 3.12L195.28-7.92L195.28-7.92Q191.92-0.56 185.12-0.56L185.12-0.56L185.12-0.56Q180.48-0.56 177.96-3.20L177.96-3.20L177.96-3.20Q175.44-5.84 175.44-10.64L175.44-10.64L175.44-10.64Q175.44-13.12 176.92-19.56L176.92-19.56L176.92-19.56Q178.40-26 178.56-29.52" fill="#ffffff" stroke="none" stroke-width="none" transform="translate(-139.60003662109375,21.766399536132813)" style="fill: rgb(255, 255, 255);"></path></g><g class="path" style="transform: scale(1); transform-origin: 86.4px 6.5664px; animation: 1.66667s linear -0.157143s infinite normal forwards running beat-17bd973d-10ef-4858-a30f-81dcfb36a39b;"><path d="M229.52-31.12L229.52-31.12L229.52-31.12Q239.68-31.12 239.68-23.04L239.68-23.04L239.68-23.04Q239.68-18 234.92-15.40L234.92-15.40L234.92-15.40Q230.16-12.80 221.36-12.72L221.36-12.72L221.36-12.72Q221.20-9.84 221.20-8.16L221.20-8.16L221.20-8.16Q221.20-4.56 222.84-2.84L222.84-2.84L222.84-2.84Q224.48-1.12 226.96-1.12L226.96-1.12L226.96-1.12Q229.44-1.12 231.48-2.08L231.48-2.08L231.48-2.08Q233.52-3.04 234.72-4.36L234.72-4.36L234.72-4.36Q235.92-5.68 236.80-7.12L236.80-7.12L236.80-7.12Q238.40-9.76 238.40-10.48L238.40-10.48L239.84-9.84L239.84-9.84Q239.60-8.56 238.40-6.44L238.40-6.44L238.40-6.44Q237.20-4.32 235.76-2.96L235.76-2.96L235.76-2.96Q234.32-1.60 231.52-0.44L231.52-0.44L231.52-0.44Q228.72 0.72 225.28 0.72L225.28 0.72L225.28 0.72Q218.80 0.72 215.48-2.36L215.48-2.36L215.48-2.36Q212.16-5.44 212.16-10.80L212.16-10.80L212.16-10.80Q212.16-20.32 216.88-25.72L216.88-25.72L216.88-25.72Q221.60-31.12 229.52-31.12zM237.68-23.04L237.68-23.04Q237.68-25.68 236.12-27.40L236.12-27.40L236.12-27.40Q234.56-29.12 231.48-29.12L231.48-29.12L231.48-29.12Q228.40-29.12 225.48-25.44L225.48-25.44L225.48-25.44Q222.56-21.76 221.60-14.56L221.60-14.56L221.60-14.56Q237.68-14.64 237.68-23.04L237.68-23.04" fill="#ffffff" stroke="none" stroke-width="none" transform="translate(-139.60003662109375,21.766399536132813)" style="fill: rgb(255, 255, 255);"></path></g><g class="path" style="transform: scale(1); transform-origin: 122.52px -3.7936px; animation: 1.66667s linear 0s infinite normal forwards running beat-17bd973d-10ef-4858-a30f-81dcfb36a39b;"><path d="M271.76 0.72L271.76 0.72L271.76 0.72Q264.72 0.72 264.08-5.28L264.08-5.28L264.08-5.28Q260.56 0.72 255.12 0.72L255.12 0.72L255.12 0.72Q249.68 0.72 246.80-2.36L246.80-2.36L246.80-2.36Q243.92-5.44 243.92-10.80L243.92-10.80L243.92-10.80Q243.92-20.24 248.40-25.68L248.40-25.68L248.40-25.68Q252.88-31.12 260-31.12L260-31.12L260-31.12Q264.08-31.12 266.32-28.64L266.32-28.64L266.32-28.64Q267.28-27.36 267.52-26.72L267.52-26.72L271.84-50.24L271.84-50.24Q269.44-50 267.84-48L267.84-48L266.64-48.96L266.64-48.96Q269.04-51.84 272.68-51.84L272.68-51.84L272.68-51.84Q276.32-51.84 278.32-50L278.32-50L278.32-50Q280.32-48.16 280.32-44.80L280.32-44.80L280.32-44.80Q280.32-44.16 280.16-42.72L280.16-42.72L280.16-42.72Q276.24-20.72 272.56-0.88L272.56-0.88L272.56-0.88Q274.96-1.12 276.56-3.12L276.56-3.12L277.76-2.16L277.76-2.16Q275.36 0.72 271.76 0.72zM252.96-7.52L252.96-7.52Q252.96-3.84 253.72-2.48L253.72-2.48L253.72-2.48Q254.48-1.12 256.12-1.12L256.12-1.12L256.12-1.12Q257.76-1.12 259.28-2.24L259.28-2.24L259.28-2.24Q260.80-3.36 261.84-5.12L261.84-5.12L261.84-5.12Q263.76-8.08 264.56-10.16L264.56-10.16L266.88-22.80L266.88-22.80Q266.72-25.36 265.20-27.48L265.20-27.48L265.20-27.48Q263.68-29.60 260-29.60L260-29.60L260-29.60Q257.44-29.60 255.20-22.08L255.20-22.08L255.20-22.08Q252.96-14.56 252.96-7.52L252.96-7.52" fill="#ffffff" stroke="none" stroke-width="none" transform="translate(-139.60003662109375,21.766399536132813)" style="fill: rgb(255, 255, 255);"></path></g></g>
</g>
</g>
<style id="beat-17bd973d-10ef-4858-a30f-81dcfb36a39b" data-anikit="">@keyframes beat-17bd973d-10ef-4858-a30f-81dcfb36a39b
{
  0% {
    animation-timing-function: cubic-bezier(0.1028,0.2484,0.1372,0.849);
    transform: scale(1);
  }
  34% {
    animation-timing-function: cubic-bezier(0.7116,0.2095,0.8159,0.6876);
    transform: scale(1.2);
  }
  68% {
    animation-timing-function: cubic-bezier(0.1475,0.2888,0.294,0.883);
    transform: scale(1.0268);
  }
  84% {
    animation-timing-function: cubic-bezier(0.8176,0.2193,0.867,0.6889);
    transform: scale(1.0932);
  }
  100% {
    transform: scale(1);
  }
}</style></svg>